HIERARCHY
ROOT Hips
{
  OFFSET 5.72205e-005 65.662 3.42586
  CHANNELS 6 Xposition Yposition Zposition Zrotation Xrotation Yrotation
  JOINT Chest
  {
    OFFSET 0 8.7983 -4.7612
    CHANNELS 3 Zrotation Xrotation Yrotation
    JOINT Chest2
    {
      OFFSET 0 8.0291 0.4195
      CHANNELS 3 Zrotation Xrotation Yrotation
      JOINT Chest3
      {
        OFFSET 0 9.9351 -2.2114
        CHANNELS 3 Zrotation Xrotation Yrotation
        JOINT Neck
        {
          OFFSET 0 22.3885 -0.4656
          CHANNELS 3 Zrotation Xrotation Yrotation
          JOINT Head
          {
            OFFSET -0.0001 12.643 3.4389
            CHANNELS 3 Zrotation Xrotation Yrotation
            End Site
            {
              OFFSET 0.0001 17.6655 0.5274
            }
          }
        }
        JOINT LeftCollar
        {
          OFFSET 2.2603 21.606 7.4023
          CHANNELS 3 Zrotation Xrotation Yrotation
          JOINT LeftShoulder
          {
            OFFSET 13.5163 -1.1332 -5.0146
            CHANNELS 3 Zrotation Xrotation Yrotation
            JOINT LeftElbow
            {
              OFFSET -0.0995 -28.05 -0.2431
              CHANNELS 3 Zrotation Xrotation Yrotation
              JOINT LeftWrist
              {
                OFFSET 0.0679 -23.3996 -0.1402
                CHANNELS 3 Zrotation Xrotation Yrotation
                JOINT LeftFinger1
                {
                  OFFSET 0.7932 -9.069 2.5189
                  CHANNELS 3 Zrotation Xrotation Yrotation
                  JOINT LeftFinger11
                  {
                    OFFSET -0.8272 -3.3923 0.5977
                    CHANNELS 3 Zrotation Xrotation Yrotation
                    JOINT LeftFinger12
                    {
                      OFFSET -0.5649 -2.3158 0.4082
                      CHANNELS 3 Zrotation Xrotation Yrotation
                      End Site
                      {
                        OFFSET -0.4919 -1.6479 0.2673
                      }
                    }
                  }
                }
                JOINT LeftFinger2
                {
                  OFFSET 0.9159 -9.2044 0.2193
                  CHANNELS 3 Zrotation Xrotation Yrotation
                  JOINT LeftFinger21
                  {
                    OFFSET 0.0117 -4.1944 -0.0248
                    CHANNELS 3 Zrotation Xrotation Yrotation
                    JOINT LeftFinger22
                    {
                      OFFSET 0.0071 -2.3249 -0.0142
                      CHANNELS 3 Zrotation Xrotation Yrotation
                      End Site
                      {
                        OFFSET -0.1475 -2.0882 0.0028
                      }
                    }
                  }
                }
                JOINT LeftFinger3
                {
                  OFFSET 0.6113 -8.7231 -2.0637
                  CHANNELS 3 Zrotation Xrotation Yrotation
                  JOINT LeftFinger31
                  {
                    OFFSET -0.1927 -3.8059 -0.2383
                    CHANNELS 3 Zrotation Xrotation Yrotation
                    JOINT LeftFinger32
                    {
                      OFFSET -0.1091 -2.1688 -0.1362
                      CHANNELS 3 Zrotation Xrotation Yrotation
                      End Site
                      {
                        OFFSET -0.2358 -1.9176 -0.0906
                      }
                    }
                  }
                }
                JOINT LeftFinger4
                {
                  OFFSET -0.6151 -8.0947 -3.5641
                  CHANNELS 3 Zrotation Xrotation Yrotation
                  JOINT LeftFinger41
                  {
                    OFFSET -0.4882 -2.341 -0.6462
                    CHANNELS 3 Zrotation Xrotation Yrotation
                    JOINT LeftFinger42
                    {
                      OFFSET -0.3575 -1.7167 -0.4742
                      CHANNELS 3 Zrotation Xrotation Yrotation
                      End Site
                      {
                        OFFSET -0.4187 -1.5237 -0.3496
                      }
                    }
                  }
                }
                JOINT LeftFinger0
                {
                  OFFSET -1.42 -1.8761 1.4223
                  CHANNELS 3 Zrotation Xrotation Yrotation
                  JOINT LeftFinger01
                  {
                    OFFSET -1.1471 -3.4929 2.6334
                    CHANNELS 3 Zrotation Xrotation Yrotation
                    JOINT LeftFinger02
                    {
                      OFFSET -0.823 -2.3 1.6571
                      CHANNELS 3 Zrotation Xrotation Yrotation
                      End Site
                      {
                        OFFSET -0.5822 -1.6914 1.1582
                      }
                    }
                  }
                }
              }
            }
          }
        }
        JOINT RightCollar
        {
          OFFSET -2.2603 21.606 7.4023
          CHANNELS 3 Zrotation Xrotation Yrotation
          JOINT RightShoulder
          {
            OFFSET -13.5187 -1.1334 -5.0155
            CHANNELS 3 Zrotation Xrotation Yrotation
            JOINT RightElbow
            {
              OFFSET 0.0994 -28.0499 -0.2431
              CHANNELS 3 Zrotation Xrotation Yrotation
              JOINT RightWrist
              {
                OFFSET -0.0679 -23.3996 -0.1402
                CHANNELS 3 Zrotation Xrotation Yrotation
                JOINT RightFinger1
                {
                  OFFSET -0.7932 -9.0691 2.5189
                  CHANNELS 3 Zrotation Xrotation Yrotation
                  JOINT RightFinger11
                  {
                    OFFSET 0.8272 -3.3923 0.5977
                    CHANNELS 3 Zrotation Xrotation Yrotation
                    JOINT RightFinger12
                    {
                      OFFSET 0.565 -2.3158 0.4082
                      CHANNELS 3 Zrotation Xrotation Yrotation
                      End Site
                      {
                        OFFSET 0.4919 -1.6479 0.2673
                      }
                    }
                  }
                }
                JOINT RightFinger2
                {
                  OFFSET -0.916 -9.2044 0.2193
                  CHANNELS 3 Zrotation Xrotation Yrotation
                  JOINT RightFinger21
                  {
                    OFFSET -0.0117 -4.1944 -0.0248
                    CHANNELS 3 Zrotation Xrotation Yrotation
                    JOINT RightFinger22
                    {
                      OFFSET -0.0071 -2.3249 -0.0142
                      CHANNELS 3 Zrotation Xrotation Yrotation
                      End Site
                      {
                        OFFSET 0.1475 -2.0882 0.0028
                      }
                    }
                  }
                }
                JOINT RightFinger3
                {
                  OFFSET -0.6113 -8.7231 -2.0637
                  CHANNELS 3 Zrotation Xrotation Yrotation
                  JOINT RightFinger31
                  {
                    OFFSET 0.1927 -3.8059 -0.2383
                    CHANNELS 3 Zrotation Xrotation Yrotation
                    JOINT RightFinger32
                    {
                      OFFSET 0.1091 -2.1688 -0.1362
                      CHANNELS 3 Zrotation Xrotation Yrotation
                      End Site
                      {
                        OFFSET 0.2358 -1.9176 -0.0906
                      }
                    }
                  }
                }
                JOINT RightFinger4
                {
                  OFFSET 0.6151 -8.0947 -3.564
                  CHANNELS 3 Zrotation Xrotation Yrotation
                  JOINT RightFinger41
                  {
                    OFFSET 0.4882 -2.341 -0.6462
                    CHANNELS 3 Zrotation Xrotation Yrotation
                    JOINT RightFinger42
                    {
                      OFFSET 0.3574 -1.7166 -0.4742
                      CHANNELS 3 Zrotation Xrotation Yrotation
                      End Site
                      {
                        OFFSET 0.4187 -1.5237 -0.3496
                      }
                    }
                  }
                }
                JOINT RightFinger0
                {
                  OFFSET 1.4199 -1.8761 1.4221
                  CHANNELS 3 Zrotation Xrotation Yrotation
                  JOINT RightFinger01
                  {
                    OFFSET 1.1472 -3.4929 2.6336
                    CHANNELS 3 Zrotation Xrotation Yrotation
                    JOINT RightFinger02
                    {
                      OFFSET 0.8229 -2.3 1.6571
                      CHANNELS 3 Zrotation Xrotation Yrotation
                      End Site
                      {
                        OFFSET 0.5822 -1.6914 1.1582
                      }
                    }
                  }
                }
              }
            }
          }
        }
      }
    }
  }
  JOINT RightHip
  {
    OFFSET -9.412 3.9771 -0.7758
    CHANNELS 3 Zrotation Xrotation Yrotation
    JOINT RightKnee
    {
      OFFSET -0.7531 -40.938 0
      CHANNELS 3 Zrotation Xrotation Yrotation
      JOINT RightAnkle
      {
        OFFSET 0 -40.1986 0
        CHANNELS 3 Zrotation Xrotation Yrotation
        JOINT RightToe
        {
          OFFSET 0 -4.4182 9.239
          CHANNELS 3 Zrotation Xrotation Yrotation
          End Site
          {
            OFFSET 0 0 6.1981
          }
        }
      }
    }
  }
  JOINT LeftHip
  {
    OFFSET 9.4119 3.9773 -0.7758
    CHANNELS 3 Zrotation Xrotation Yrotation
    JOINT LeftKnee
    {
      OFFSET 0.7532 -40.9383 0
      CHANNELS 3 Zrotation Xrotation Yrotation
      JOINT LeftAnkle
      {
        OFFSET 0 -40.1986 0
        CHANNELS 3 Zrotation Xrotation Yrotation
        JOINT LeftToe
        {
          OFFSET 0 -4.4182 9.239
          CHANNELS 3 Zrotation Xrotation Yrotation
          End Site
          {
            OFFSET 0 0 6.1981
          }
        }
      }
    }
  }
}
MOTION
Frames:	6
Frame Time:	0.0333333
5.72205e-005 65.662 3.42586 0 0 -0 0 0 -0 0 0 -0 0 0 -0 0 0 -0 0 0 -0 0 0 -12.5014 88.1196 14.2451 10.6914 -0.00160068 -0.00239207 0.000740045 -8.4365e-005 7.00714e-005 -9.52055e-007 9.93923e-017 -1.98785e-016 -1.59028e-015 9.93923e-017 -5.96354e-016 -1.59028e-015 -9.93923e-017 -5.96354e-016 -1.59028e-015 9.93923e-017 -1.98785e-016 -1.59028e-015 -0.0128176 0.00232552 8.52707e-005 9.93923e-017 5.96354e-016 -0 9.93923e-017 -1.98785e-016 -1.59028e-015 -0.0160551 0.00299681 0.000857156 -2.48481e-016 0 3.18055e-015 9.93923e-017 -1.98785e-016 -1.59028e-015 -0.0125865 0.0031206 0.00282719 0 1.98785e-016 -0 9.93923e-017 -1.98785e-016 -1.59028e-015 9.93923e-017 -5.96354e-016 -1.59028e-015 -9.93923e-017 -5.96354e-016 -1.59028e-015 -0.865644 0.16582 7.03859 -88.0329 10.2057 -10.5567 0.0015593 -0.00248883 -0.000788628 7.87605e-005 4.10553e-005 1.24965e-005 -3.97569e-016 -7.95139e-016 3.18055e-015 -1.98785e-016 -3.97569e-016 3.18055e-015 -1.98785e-016 0 3.18055e-015 -3.97569e-016 -7.95139e-016 3.18055e-015 0.0129473 0.00231697 -8.70038e-005 9.93923e-017 -7.95139e-016 1.59028e-015 -3.97569e-016 -7.95139e-016 3.18055e-015 0.0163314 0.00303369 -0.000872333 3.97569e-016 7.95139e-016 -3.18055e-015 -3.97569e-016 -7.95139e-016 3.18055e-015 0.0145763 0.00367772 -0.00326275 9.93923e-017 -3.97569e-016 -0 -3.97569e-016 -7.95139e-016 3.18055e-015 -1.98785e-016 -3.97569e-016 3.18055e-015 -1.98785e-016 0 3.18055e-015 3.42482 1.32465 -0.0626183 0.000117508 0.717283 0.000978199 -3.4257 -2.04197 -0.0604716 6.47761e-025 0 -0 -3.42483 1.34017 0.0627307 -0.000193936 0.682302 -0.0013703 3.42574 -2.02253 0.0595886 -8.45714e-024 0 -7.40531e-025 
-0.0120282 25.7454 2.82505 1.98062e-020 -1.02964e-010 1.47325e-008 0.122318 0.00428234 -0.751801 0.244682 0.00695935 -1.50361 0.244682 0.00695935 -1.50361 0.0246512 -0.00647474 -0.000246066 0.0915769 -0.0313638 -0.220881 -12.1839 1.64916 -45.3951 83.1888 -4.98329 10.2654 -23.0989 -8.04971 6.66354 19.54 -18.0237 10.9398 -3.57812e-015 -6.36111e-015 6.36111e-015 9.41657e-006 -8.82961e-006 -7.72131e-006 -1.59028e-015 1.59028e-015 1.10325e-014 -3.57812e-015 -6.36111e-015 6.36111e-015 -0.0127711 0.00231124 7.27289e-005 -4.41132e-007 1.81432e-007 2.36107e-006 -3.57812e-015 -6.36111e-015 6.36111e-015 -0.0160241 0.0029891 0.000852251 3.75535e-006 2.36179e-006 -1.55643e-006 -3.57812e-015 -6.36111e-015 6.36111e-015 -0.012606 0.00312844 0.00282121 2.36175e-006 -5.38007e-007 3.10833e-006 -3.57812e-015 -6.36111e-015 6.36111e-015 9.41657e-006 -8.82961e-006 -7.72131e-006 -1.59028e-015 1.59028e-015 1.10325e-014 -4.6653 -0.975335 6.57159 -97.6909 -0.662905 -12.5122 -149.197 -60.6609 165.71 5.09925 0.949218 0.249363 -3.97569e-016 -3.18055e-015 -3.57812e-015 3.57812e-015 -3.18055e-015 -3.97569e-015 1.2782e-005 1.21901e-006 8.85545e-006 -3.97569e-016 -3.18055e-015 -3.57812e-015 0.012984 0.00232918 -7.90546e-005 -6.61179e-006 7.29324e-006 -4.04795e-006 -3.97569e-016 -3.18055e-015 -3.57812e-015 0.0164176 0.00305103 -0.000868458 -4.40645e-006 2.9527e-006 -2.14749e-006 -3.97569e-016 -3.18055e-015 -3.57812e-015 0.0147156 0.00370573 -0.00327269 -2.82044e-005 1.43908e-005 -1.55446e-005 -3.97569e-016 -3.18055e-015 -3.57812e-015 3.57812e-015 -3.18055e-015 -3.97569e-015 1.2782e-005 1.21901e-006 8.85545e-006 -1.38534 -34.7081 -7.24773 -173.28 63.0009 173.336 0.715543 17.5839 -21.2528 -1.39335e-006 -1.02578e-006 -1.8912e-006 1.45342 -34.721 7.22347 173.288 62.9874 -173.345 -0.685161 17.5865 21.1611 1.10663e-006 -8.31606e-007 3.47801e-006 
0.0425163 7.70778 2.73922 0 0 -4.53306e-008 0.181197 -0.00370447 -1.08279 0.362294 -0.0108325 -2.16558 0.362294 -0.0108325 -2.16558 0.0356907 -0.00939068 -2.44489e-005 0.185601 -0.0519509 -0.438462 -17.0042 1.82999 -60.1771 81.2778 -13.6091 10.1258 -33.3192 -12.4366 10.3015 28.3851 -26.0421 15.7593 3.18055e-015 0 7.55382e-015 3.18055e-015 3.18055e-015 4.37326e-015 -1.10348e-031 1.59028e-015 3.97569e-015 3.18055e-015 0 7.55382e-015 -0.0127935 0.00231033 8.67524e-005 3.18055e-015 1.59028e-015 -3.18055e-015 3.18055e-015 0 7.55382e-015 -0.0160787 0.00299694 0.000850196 4.50321e-007 7.49826e-006 1.09958e-005 3.18055e-015 0 7.55382e-015 -0.0125796 0.00310743 0.00282192 -3.18055e-015 1.59028e-015 2.38542e-015 3.18055e-015 0 7.55382e-015 3.18055e-015 3.18055e-015 4.37326e-015 -1.10348e-031 1.59028e-015 3.97569e-015 -6.38117 -1.48883 6.36165 -101.875 -5.61809 -13.3697 -69.0765 -9.5716 15.8445 7.36179 1.23525 0.153322 5.26975e-008 -1.07117e-006 -8.49357e-007 -8.44835e-016 8.54069e-007 -0 1.3418e-015 7.95139e-016 -7.95139e-016 5.26975e-008 -1.07117e-006 -8.49357e-007 0.0129203 0.00230752 -8.54898e-005 3.37934e-015 -2.35226e-006 -1.59028e-015 5.26975e-008 -1.07117e-006 -8.49357e-007 0.0163555 0.00303619 -0.000874366 4.82053e-015 -7.95139e-016 2.38542e-015 5.26975e-008 -1.07117e-006 -8.49357e-007 0.0144904 0.00365189 -0.00324091 -3.8266e-015 7.95139e-016 -2.38542e-015 5.26975e-008 -1.07117e-006 -8.49357e-007 -8.44835e-016 8.54069e-007 -0 1.3418e-015 7.95139e-016 -7.95139e-016 -6.91249 -34.0057 -24.7814 -176.779 12.5726 167.134 6.93156 8.17181 -35.9424 -8.60985e-006 2.25922e-006 1.40013e-006 6.62776 -34.0035 24.8878 176.776 12.5776 -167.121 -7.09862 8.08494 36.2509 6.36111e-015 0 -3.18055e-015 
0.163182 11.6656 2.67213 1.52151e-021 -1.1631e-011 1.68799e-008 0.167898 -0.00141955 -1.00968 0.335742 -0.00579741 -2.01935 0.335744 -0.00579747 -2.01936 0.0332349 -0.00874302 -5.61062e-005 0.28222 -0.0618533 -0.652769 -15.7087 1.6167 -56.8198 81.9519 -11.571 10.1745 -30.8248 -12.9578 10.0748 25.8634 -24.4442 14.0597 3.32314e-006 -1.82338e-007 -4.63793e-007 -4.77083e-015 -3.18055e-015 -1.98785e-016 -1.59028e-015 -1.59028e-015 3.97569e-016 3.32314e-006 -1.82338e-007 -4.63793e-007 -0.0128358 0.00233003 9.21642e-005 -8.30755e-007 -1.08069e-006 1.15914e-007 3.32314e-006 -1.82338e-007 -4.63793e-007 -0.0160248 0.00298534 0.000857967 -7.56381e-007 -5.80291e-007 3.04928e-006 3.32314e-006 -1.82338e-007 -4.63793e-007 -0.012619 0.00313898 0.00284172 3.18055e-015 -1.59028e-015 -2.18663e-015 3.32314e-006 -1.82338e-007 -4.63793e-007 -4.77083e-015 -3.18055e-015 -1.98785e-016 -1.59028e-015 -1.59028e-015 3.97569e-016 -5.99955 -1.37472 6.40833 -100.951 -4.51521 -13.181 -117.62 -20.0548 -177.252 6.78104 0.910445 0.268422 -4.5465e-008 -1.26371e-006 4.23463e-007 -9.09301e-008 -2.26374e-009 8.46926e-007 7.05686e-015 0 -0 -4.5465e-008 -1.26371e-006 4.23463e-007 0.0129173 0.00230755 -8.24756e-005 2.83268e-015 0 2.38542e-015 -4.5465e-008 -1.26371e-006 4.23463e-007 0.0163964 0.00304014 -0.000871972 4.82053e-015 7.95139e-016 -0 -4.5465e-008 -1.26371e-006 4.23463e-007 0.0146558 0.00369439 -0.00327487 -1.39646e-014 0 -7.95139e-016 -4.5465e-008 -1.26371e-006 4.23463e-007 -9.09301e-008 -2.26374e-009 8.46926e-007 7.05686e-015 0 -0 -5.30862 -40.7016 -16.7096 -175.59 23.5243 170.642 6.54662 16.9364 -31.6419 -0 0 3.18055e-015 4.30576 -40.6931 17.0599 175.585 23.5398 -170.616 -7.15643 16.6835 32.8733 5.22716e-007 1.78229e-006 -1.6156e-006 
0.271852 11.6084 2.65003 1.52017e-021 -1.1631e-011 1.6865e-008 0.167898 -0.00141954 -1.00968 0.335743 -0.00579739 -2.01935 0.335744 -0.00579745 -2.01936 0.033235 -0.00874302 -5.73083e-005 0.378355 -0.0741364 -0.867741 -15.5119 1.44851 -56.7598 82.1586 -11.476 10.1909 -30.6139 -14.1887 10.5751 25.4223 -24.5809 13.551 1.59028e-015 -3.18055e-015 6.75868e-015 1.59028e-015 -4.77083e-015 6.36111e-015 1.0483e-031 -1.59028e-015 3.77691e-015 1.59028e-015 -3.18055e-015 6.75868e-015 -0.0128176 0.002322 8.03931e-005 1.59028e-015 0 3.97569e-015 1.59028e-015 -3.18055e-015 6.75868e-015 -0.0160239 0.00297982 0.000858546 -1.59028e-015 3.18055e-015 1.78906e-015 1.59028e-015 -3.18055e-015 6.75868e-015 -0.0125728 0.0031143 0.00281554 -2.42765e-031 3.18055e-015 4.37326e-015 1.59028e-015 -3.18055e-015 6.75868e-015 1.59028e-015 -4.77083e-015 6.36111e-015 1.0483e-031 -1.59028e-015 3.77691e-015 -5.99955 -1.37472 6.40833 -100.951 -4.51517 -13.181 -117.62 -20.0548 -177.252 6.71889 0.683045 0.238687 1.31262e-007 4.02084e-007 -1.27097e-006 8.75083e-008 4.32722e-007 -8.4731e-007 -1.49252e-006 2.05141e-006 -1.89142e-006 1.31262e-007 4.02084e-007 -1.27097e-006 0.0129456 0.00231873 -8.75728e-005 8.75557e-008 8.43835e-007 -8.47307e-007 1.31262e-007 4.02084e-007 -1.27097e-006 0.0161957 0.00301642 -0.000869952 1.88013e-005 -1.22646e-006 3.17446e-007 1.31262e-007 4.02084e-007 -1.27097e-006 0.0145816 0.00368476 -0.00326476 4.57861e-006 -6.10714e-007 -1.59494e-006 1.31262e-007 4.02084e-007 -1.27097e-006 8.75083e-008 4.32722e-007 -8.4731e-007 -1.49252e-006 2.05141e-006 -1.89142e-006 -5.63989 -40.765 -16.5976 -175.593 23.5128 170.652 6.35096 17.0384 -31.2371 4.26435e-006 -6.51743e-006 -4.0631e-006 3.97159 -40.745 17.1861 175.584 23.545 -170.605 -7.36859 16.6172 33.2935 5.21503e-007 2.39913e-006 -1.61598e-006 
0.380504 11.5514 2.62796 1.52017e-021 -1.1631e-011 1.6865e-008 0.167898 -0.00141954 -1.00968 0.335743 -0.00579739 -2.01935 0.335744 -0.00579745 -2.01936 0.0332349 -0.00874303 -5.69566e-005 0.474477 -0.0867843 -1.08277 -15.3147 1.28037 -56.6991 82.3776 -11.3749 10.2092 -30.4037 -15.4231 11.0819 24.9785 -24.7142 13.0396 3.18055e-015 -3.18055e-015 3.97569e-016 1.59028e-015 0 2.78299e-015 1.59028e-015 -4.77083e-015 -9.93923e-015 3.18055e-015 -3.18055e-015 3.97569e-016 -0.0128364 0.00232322 8.81856e-005 -2.3173e-031 4.77083e-015 2.78299e-015 3.18055e-015 -3.18055e-015 3.97569e-016 -0.0160961 0.00300514 0.000859193 -1.59028e-015 0 -6.75868e-015 3.18055e-015 -3.18055e-015 3.97569e-016 -0.0125776 0.00310775 0.00282866 -4.77083e-015 3.18055e-015 5.96354e-015 3.18055e-015 -3.18055e-015 3.97569e-016 1.59028e-015 0 2.78299e-015 1.59028e-015 -4.77083e-015 -9.93923e-015 -5.99955 -1.37472 6.40833 -100.951 -4.51525 -13.181 -117.62 -20.0548 -177.252 6.65664 0.455597 0.208623 -8.40841e-008 -5.18176e-010 8.47681e-007 4.2042e-008 4.27387e-007 -4.23841e-007 -4.2042e-008 -4.27387e-007 4.23841e-007 -8.40841e-008 -5.18176e-010 8.47681e-007 0.0129211 0.00231313 -8.65873e-005 4.20656e-008 -4.26866e-007 -4.23839e-007 -8.40841e-008 -5.18176e-010 8.47681e-007 0.016417 0.00305248 -0.000878891 -4.20728e-008 -4.27385e-007 4.23839e-007 -8.40841e-008 -5.18176e-010 8.47681e-007 0.0146191 0.00368869 -0.00326891 -1.39149e-015 -4.22146e-007 -0 -8.40841e-008 -5.18176e-010 8.47681e-007 4.2042e-008 4.27387e-007 -4.23841e-007 -4.2042e-008 -4.27387e-007 4.23841e-007 -5.97175 -40.8285 -16.4858 -175.596 23.5017 170.661 6.15419 17.1392 -30.8313 6.06347e-006 4.59888e-006 -1.04055e-005 3.63767 -40.7938 17.3126 175.58 23.5538 -170.593 -7.58033 16.5495 33.7137 -6.18284e-007 4.34468e-007 -5.69657e-007 
